<svg width="18" height="19" viewBox="0 0 18 19" fill="none" xmlns="http://www.w3.org/2000/svg">
<style>
    @media (prefers-color-scheme: dark) {
      .infostroke {
        stroke: #FFFFFF;
        fill:#212529;
      }
    }
  </style>
<g>
<path class="infostroke" d="M2.46545 12.6042H15.5346" stroke="#212529" stroke-width="0.75" stroke-linecap="round" stroke-linejoin="round"/>
<path class="infostroke" d="M2.46545 16.5983H15.5346" stroke="#212529" stroke-width="0.75" stroke-linecap="round" stroke-linejoin="round"/>
<path class="infostroke" d="M9.66098 4.62033C10.4894 4.62033 11.161 3.94876 11.161 3.12033C11.161 2.2919 10.4894 1.62033 9.66098 1.62033C8.83255 1.62033 8.16098 2.2919 8.16098 3.12033C8.16098 3.94876 8.83255 4.62033 9.66098 4.62033Z" fill="white" stroke="#212529" stroke-linejoin="round"/>
<path class="infostroke" d="M12.7419 8.96248L11.2109 7.94046L10.3657 6.3898C10.329 6.31931 10.28 6.26057 10.231 6.21358C10.0962 6.07261 9.92477 5.97864 9.71654 5.93165L8.88365 5.79068C8.63868 5.73194 8.38146 5.79068 8.18548 5.95514L6.66667 7.24736C6.66667 7.24736 6.60543 7.3061 6.59318 7.31784L6.51969 7.42357C6.51969 7.43532 6.4707 7.51755 6.4707 7.5293L5.73579 9.37364C5.58881 9.76131 5.78478 10.1842 6.18898 10.3369C6.56869 10.4779 7.04638 10.2782 7.19336 9.90228L7.41383 9.35015L7.34034 10.0315L6.8749 11.7584L5.42958 13.2973C5.27035 13.4617 5.19686 13.6732 5.20911 13.8964C5.22135 14.1196 5.31934 14.3193 5.49082 14.4603C5.83378 14.754 6.39721 14.7305 6.70342 14.4015L8.32022 12.6864C8.32022 12.6864 8.40596 12.5807 8.41821 12.5572C8.41821 12.5454 8.47945 12.4162 8.4917 12.3927L8.77341 11.4764L9.26335 12.2283L10.0595 14.4368C10.182 14.7657 10.5004 14.9889 10.8679 14.9889C10.9659 14.9889 11.0639 14.9772 11.1496 14.9419C11.5906 14.7892 11.8355 14.3193 11.6763 13.8964L10.8557 11.6409C10.8557 11.6409 10.8067 11.5234 10.7944 11.5117L9.86352 9.84354L10.0595 8.95073C10.0595 8.95073 10.0962 8.98598 10.1207 9.00947C10.133 9.00947 10.1942 9.06821 10.2065 9.07996L11.8723 10.1842C12.2152 10.4074 12.7174 10.3252 12.9501 9.99626C13.0726 9.83179 13.1094 9.63209 13.0726 9.44413C13.0359 9.24442 12.9256 9.07996 12.7542 8.96248H12.7419Z" fill="white" stroke="#212529" stroke-linejoin="round"/>
<path class="infostroke" d="M8.74891 11.4882L7.40158 9.3619L7.80578 8.31638" fill="white"/>
<path class="infostroke" d="M8.74891 11.4882L7.40158 9.3619L7.80578 8.31638" stroke="#212529" stroke-linecap="round" stroke-linejoin="round"/>
</g>
</svg>
