<svg width="18" height="19" viewBox="0 0 18 19" fill="none" xmlns="http://www.w3.org/2000/svg">
<style>
    @media (prefers-color-scheme: dark) {
      .infostroke {
        stroke: #FFFFFF;
        fill:#212529;
      }
    }
  </style>
<g>
<path class="infostroke" d="M14.5624 12.3658H12.577V14.1013H14.5624V12.3658Z" fill="white" stroke="#212529" stroke-linecap="round" stroke-linejoin="round"/>
<path class="infostroke" d="M5.39732 12.3658H3.41199V14.1013H5.39732V12.3658Z" fill="white" stroke="#212529" stroke-linecap="round" stroke-linejoin="round"/>
<path class="infostroke" d="M3.71148 7.14206H14.2885C14.9988 7.14206 15.5721 7.72055 15.5721 8.43719V12.5298H2.42786V8.43719C2.42786 7.72055 3.00121 7.14206 3.71148 7.14206Z" fill="white" stroke="#212529" stroke-linecap="round" stroke-linejoin="round"/>
<path class="infostroke" d="M4.3961 10.6907C4.89708 10.6907 5.30319 10.281 5.30319 9.77549C5.30319 9.27002 4.89708 8.86026 4.3961 8.86026C3.89513 8.86026 3.48901 9.27002 3.48901 9.77549C3.48901 10.281 3.89513 10.6907 4.3961 10.6907Z" fill="#212529"/>
<path class="infostroke" d="M13.5697 10.6907C14.0707 10.6907 14.4768 10.281 14.4768 9.77549C14.4768 9.27002 14.0707 8.86026 13.5697 8.86026C13.0687 8.86026 12.6626 9.27002 12.6626 9.77549C12.6626 10.281 13.0687 10.6907 13.5697 10.6907Z" fill="#212529"/>
<path class="infostroke" d="M14.5623 7.14205L12.7653 3.96466H5.44007L3.72858 7.14205H14.5623Z" fill="white" stroke="#212529" stroke-linecap="round" stroke-linejoin="round"/>
<path class="infostroke" d="M7.65649 9.77551H10.3521" stroke="#212529" stroke-linecap="round" stroke-linejoin="round"/>
</g>
</svg>
